<?xml version="1.0" encoding="UTF-8" standalone="no"?>
<svg width="447px" height="390px" viewBox="0 0 447 390" version="1.1" xmlns="http://www.w3.org/2000/svg" xmlns:xlink="http://www.w3.org/1999/xlink" xmlns:sketch="http://www.bohemiancoding.com/sketch/ns">
    <!-- Generator: Sketch 3.0.2 (7799) - http://www.bohemiancoding.com/sketch -->
    <title>folder-plus</title>
    <description>Created with Sketch.</description>
    <defs></defs>
    <g id="Page-1" stroke="none" stroke-width="1" fill="none" fill-rule="evenodd" sketch:type="MSPage">
        <g id="folder-plus" sketch:type="MSLayerGroup" fill="#000000">
            <path d="M430.843,306.48 C430.843,338.299 404.714,364.428 372.895,364.428 L58.318,364.428 C26.498,364.428 0.37,338.299 0.37,306.48 L0.37,58.13 C0.37,26.31 26.498,0.182 58.318,0.182 L141.101,0.182 C172.92,0.182 199.049,26.31 199.049,58.13 L199.049,66.408 L372.894,66.408 C404.713,66.408 430.842,92.536 430.842,124.356 L430.842,306.48 L430.843,306.48 Z M397.729,124.357 C397.729,110.646 386.605,99.522 372.894,99.522 L190.771,99.522 C177.06,99.522 165.936,88.398 165.936,74.687 L165.936,58.13 C165.936,44.419 154.812,33.295 141.101,33.295 L58.318,33.295 C44.607,33.295 33.483,44.419 33.483,58.13 L33.483,306.48 C33.483,320.191 44.607,331.315 58.318,331.315 L372.894,331.315 C386.605,331.315 397.729,320.191 397.729,306.48 L397.729,124.357 L397.729,124.357 Z" id="Shape" sketch:type="MSShapeGroup"></path>
            <path d="M319.015,134.745 C248.805,134.745 191.863,191.698 191.863,261.908 C191.863,332.097 248.805,389.06 319.015,389.06 C389.214,389.06 446.157,332.097 446.157,261.908 C446.156,191.698 389.214,134.745 319.015,134.745 Z M386.291,267.934 C386.291,272.948 382.223,277.016 377.209,277.016 L337.854,277.016 L337.854,316.371 C337.854,321.385 333.786,325.453 328.772,325.453 L310.608,325.453 C305.594,325.453 301.526,321.385 301.526,316.371 L301.526,277.016 L262.17,277.016 C257.156,277.016 253.088,272.948 253.088,267.934 L253.088,249.77 C253.088,244.756 257.156,240.688 262.17,240.688 L301.525,240.688 L301.525,201.333 C301.525,196.319 305.593,192.251 310.607,192.251 L328.771,192.251 C333.785,192.251 337.853,196.319 337.853,201.333 L337.853,240.688 L377.208,240.688 C382.222,240.688 386.29,244.756 386.29,249.77 L386.29,267.934 L386.291,267.934 Z" id="Shape" sketch:type="MSShapeGroup"></path>
        </g>
    </g>
</svg>