<?xml version="1.0" encoding="UTF-8" standalone="no"?>
<svg width="555px" height="513px" viewBox="0 0 555 513" version="1.1" xmlns="http://www.w3.org/2000/svg" xmlns:xlink="http://www.w3.org/1999/xlink" xmlns:sketch="http://www.bohemiancoding.com/sketch/ns">
    <title>Slice 1</title>
    <description>Created with Sketch (http://www.bohemiancoding.com/sketch)</description>
    <defs></defs>
    <g id="Page-1" stroke="none" stroke-width="1" fill="none" fill-rule="evenodd" sketch:type="MSPage">
        <path d="M291.469855,38.7186889 L292.600487,76.6173779 L486.802783,76.6173779 L486.802783,114.516067 L464.730551,114.516067 L554.746087,351.373253 C554.746087,387.999958 500.624277,417.69382 444.338936,417.69382 C388.053595,417.69382 333.931785,388.002096 333.931785,351.373253 L423.946363,114.516067 L293.731118,114.516067 L303.955671,456.774706 C369.557226,462.132 418.856604,485.01701 418.856604,512.434129 L130.101872,512.434129 C130.101872,485.015942 179.40125,462.132 245.002805,456.774706 L255.227357,114.516067 L131.027724,114.517136 L221.042302,351.374322 C221.042302,388.001027 166.92145,417.694889 110.635151,417.694889 C54.3488518,417.694889 0.228,388.003165 0.228,351.374322 L90.242578,114.518205 L68.1703462,114.517136 L68.1703462,76.6184468 L256.356073,76.6184468 L257.488621,38.7197578 C257.488621,17.7886848 255.712188,0.821068894 274.47301,0.821068894 C293.247246,0.82 291.469855,17.786547 291.469855,38.7186889 Z M515.080075,351.367908 L452.834005,179.494104 L452.834005,351.367908 L515.080075,351.367908 L515.080075,351.367908 Z M373.598755,351.367908 L435.844825,351.367908 L435.844825,179.494104 L373.598755,351.367908 L373.598755,351.367908 Z M178.382997,351.367908 L116.136927,179.494104 L116.136927,351.367908 L178.382997,351.367908 L178.382997,351.367908 Z M36.9035937,351.367908 L99.1496637,351.367908 L99.1496637,179.494104 L36.9035937,351.367908 L36.9035937,351.367908 Z" id="scales" fill="#000000" sketch:type="MSShapeGroup"></path>
    </g>
</svg>